<svg width="48" height="48" viewBox="0 0 48 48" fill="none" xmlns="http://www.w3.org/2000/svg">
<path d="M9.16578 10.3623C9.60027 10.6096 10.0919 10.7389 10.5919 10.7373C11.0918 10.7357 11.5826 10.6033 12.0155 10.3533C12.4485 10.1032 12.8084 9.74422 13.0596 9.31196C13.3108 8.87971 13.4445 8.38925 13.4474 7.88931H16.3274C16.3301 8.38953 16.4638 8.88031 16.715 9.31282C16.9663 9.74534 17.3265 10.1045 17.7597 10.3546C18.1929 10.6047 18.6841 10.737 19.1843 10.7384C19.6845 10.7397 20.1764 10.61 20.6109 10.3623L21.3366 11.6183C21.7328 12.3039 22.9015 12.3749 23.5891 11.9823C24.2853 11.5848 24.2286 10.866 23.8274 10.1719L23.0973 8.90883C22.7205 8.25464 22.1003 7.77594 21.372 7.57705C20.6437 7.37816 19.8663 7.47522 19.2093 7.84707C19.2027 7.09201 18.8979 6.37017 18.3613 5.83895C17.8246 5.30772 17.0998 5.01019 16.3447 5.01123H13.4339C11.8595 5.01123 10.5827 6.27843 10.5693 7.84899C9.91209 7.47654 9.13424 7.37914 8.40548 7.57805C7.67673 7.77697 7.05623 8.25605 6.67938 8.91075L5.22402 11.4298C4.43682 12.793 4.89762 14.5325 6.2493 15.3293C5.5982 15.7123 5.12499 16.3372 4.93291 17.0677C4.74083 17.7983 4.84548 18.5752 5.22402 19.2288L6.67938 21.7498C7.46658 23.113 9.20226 23.5834 10.5693 22.8116C10.5704 22.9212 10.5865 23.0331 10.6148 23.1458C10.9514 24.4845 12.7735 23.9632 13.1536 22.6361C13.2742 22.2153 13.255 21.7618 13.0479 21.3762C12.9445 21.1836 12.826 20.989 12.7141 20.8653C12.4236 20.5438 12.0639 20.2923 11.6622 20.1297C11.2606 19.9671 10.8273 19.8976 10.3949 19.9265C9.9625 19.9553 9.54228 20.0818 9.16578 20.2964L7.72578 17.8023C9.61698 16.6964 9.61698 13.9623 7.72578 12.8564L9.16578 10.3623Z" fill="#00AEF1"/>
<path d="M14.8893 18.2092C15.6531 18.2092 16.3856 17.9058 16.9257 17.3657C17.4658 16.8256 17.7693 16.093 17.7693 15.3292C17.7693 14.5654 17.4658 13.8329 16.9257 13.2928C16.3856 12.7526 15.6531 12.4492 14.8893 12.4492C14.1255 12.4492 13.3929 12.7526 12.8528 13.2928C12.3127 13.8329 12.0093 14.5654 12.0093 15.3292C12.0093 16.093 12.3127 16.8256 12.8528 17.3657C13.3929 17.9058 14.1255 18.2092 14.8893 18.2092Z" fill="#00AEF1"/>
<path fill-rule="evenodd" clip-rule="evenodd" d="M23.3488 29.0113C23.3488 27.4505 23.9688 25.9537 25.0724 24.8501C26.176 23.7465 27.6729 23.1265 29.2336 23.1265C30.7944 23.1265 32.2912 23.7465 33.3948 24.8501C34.4984 25.9537 35.1184 27.4505 35.1184 29.0113C35.1184 30.572 34.4984 32.0688 33.3948 33.1724C32.2912 34.2761 30.7944 34.8961 29.2336 34.8961C27.6729 34.8961 26.176 34.2761 25.0724 33.1724C23.9688 32.0688 23.3488 30.572 23.3488 29.0113ZM29.2355 26.0084C28.8409 26.0084 28.4502 26.0861 28.0856 26.2371C27.7211 26.3881 27.3898 26.6094 27.1108 26.8885C26.8318 27.1675 26.6105 27.4987 26.4595 27.8633C26.3085 28.2279 26.2307 28.6186 26.2307 29.0132C26.2307 29.4078 26.3085 29.7985 26.4595 30.1631C26.6105 30.5276 26.8318 30.8589 27.1108 31.1379C27.3898 31.4169 27.7211 31.6383 28.0856 31.7893C28.4502 31.9403 28.8409 32.018 29.2355 32.018C30.0325 32.018 30.7967 31.7014 31.3602 31.1379C31.9238 30.5744 32.2403 29.8101 32.2403 29.0132C32.2403 28.2163 31.9238 27.452 31.3602 26.8885C30.7967 26.325 30.0325 26.0084 29.2355 26.0084Z" fill="#00AEF1"/>
<path fill-rule="evenodd" clip-rule="evenodd" d="M15.7034 34.3739C15.472 33.9736 15.3217 33.5316 15.2613 33.0731C15.2008 32.6147 15.2312 32.1488 15.3509 31.7021C15.4705 31.2555 15.677 30.8368 15.9586 30.47C16.2401 30.1031 16.5912 29.7954 16.9917 29.5643C17.0886 29.5081 17.1689 29.4274 17.2248 29.3304C17.2807 29.2334 17.3101 29.1233 17.3101 29.0114C17.3101 28.8994 17.2807 28.7894 17.2248 28.6923C17.1689 28.5953 17.0886 28.5146 16.9917 28.4584C16.1836 27.9914 15.5941 27.2226 15.3529 26.321C15.1116 25.4194 15.2384 24.4589 15.7053 23.6507L17.8288 19.972C18.2958 19.1644 19.0643 18.5753 19.9654 18.3341C20.8666 18.0929 21.8266 18.2193 22.6346 18.6856C22.7316 18.7421 22.8418 18.7719 22.9541 18.7721C23.0663 18.7723 23.1766 18.7429 23.2739 18.6868C23.3711 18.6306 23.4518 18.5499 23.5077 18.4526C23.5637 18.3553 23.593 18.2449 23.5927 18.1326C23.5927 16.1896 25.1671 14.6133 27.1101 14.6133H31.3591C33.304 14.6133 34.8784 16.1896 34.8784 18.1326C34.8784 18.6242 35.4103 18.9314 35.8346 18.6856C36.2345 18.454 36.6761 18.3035 37.1342 18.2428C37.5923 18.1821 38.0579 18.2123 38.5043 18.3318C38.9507 18.4513 39.3692 18.6577 39.7357 18.9391C40.1023 19.2206 40.4097 19.5716 40.6403 19.972L42.7658 23.6546C42.9971 24.0544 43.1474 24.4958 43.2079 24.9538C43.2685 25.4117 43.2381 25.877 43.1187 26.3232C42.9992 26.7694 42.7929 27.1876 42.5116 27.554C42.2303 27.9204 41.8796 28.2277 41.4794 28.4584C41.382 28.5142 41.3012 28.5947 41.2449 28.6918C41.1887 28.7889 41.1591 28.8992 41.1591 29.0114C41.1591 29.1236 41.1887 29.2338 41.2449 29.3309C41.3012 29.428 41.382 29.5085 41.4794 29.5643C42.2869 30.0313 42.8761 30.7998 43.1173 31.7009C43.3585 32.6021 43.2321 33.5621 42.7658 34.3701L40.6442 38.0488C40.4131 38.4491 40.1055 38.7999 39.7388 39.0813C39.3721 39.3627 38.9536 39.5691 38.5072 39.6887C38.0607 39.8083 37.5951 39.8389 37.1369 39.7785C36.6786 39.7182 36.2368 39.5682 35.8365 39.3371C35.7393 39.2808 35.629 39.2511 35.5167 39.2509C35.4044 39.2508 35.2941 39.2802 35.1967 39.3362C35.0994 39.3923 35.0186 39.473 34.9624 39.5702C34.9062 39.6675 34.8765 39.7778 34.8765 39.8901C34.8765 41.835 33.3021 43.4094 31.3591 43.4094H27.112C26.179 43.4094 25.2841 43.0389 24.6241 42.3793C23.9642 41.7197 23.5932 40.8251 23.5927 39.892C23.5926 39.7797 23.563 39.6694 23.5068 39.5721C23.4506 39.4749 23.3697 39.3942 23.2724 39.3382C23.1751 39.2821 23.0647 39.2527 22.9524 39.2528C22.8401 39.253 22.7298 39.2827 22.6327 39.339C21.8245 39.8052 20.8643 39.9313 19.9631 39.6897C19.0619 39.4481 18.2936 38.8586 17.8269 38.0507L15.7034 34.3739ZM18.4317 32.0584C18.3587 32.1004 18.2947 32.1563 18.2434 32.2231C18.192 32.2899 18.1544 32.3661 18.1327 32.4475C18.1109 32.5288 18.1054 32.6137 18.1165 32.6972C18.1277 32.7806 18.1552 32.8611 18.1975 32.9339L20.321 36.6107C20.4976 36.9179 20.8874 37.0216 21.1946 36.845C23.5389 35.4914 26.4727 37.1829 26.4727 39.892C26.4727 40.2434 26.7587 40.5294 27.112 40.5294H31.3591C31.5286 40.5294 31.6913 40.4621 31.8112 40.3422C31.9311 40.2223 31.9984 40.0596 31.9984 39.8901C31.9984 37.1829 34.9303 35.4894 37.2765 36.843C37.5837 37.0197 37.9735 36.9141 38.1501 36.6088L40.2736 32.9301C40.3578 32.7834 40.3805 32.6092 40.3366 32.4458C40.2927 32.2825 40.1858 32.1431 40.0394 32.0584C37.6951 30.7048 37.6931 27.3198 40.0394 25.9643C40.112 25.9228 40.1757 25.8672 40.2268 25.8009C40.2779 25.7345 40.3153 25.6587 40.3369 25.5779C40.3585 25.497 40.3638 25.4127 40.3527 25.3297C40.3415 25.2467 40.314 25.1668 40.2717 25.0946L38.1463 21.4139C38.1049 21.3408 38.0493 21.2767 37.9829 21.2253C37.9165 21.1739 37.8406 21.1362 37.7594 21.1144C37.6783 21.0926 37.5937 21.0871 37.5105 21.0984C37.4272 21.1096 37.347 21.1372 37.2746 21.1797C34.9303 22.5352 31.9984 20.8398 31.9984 18.1326C31.9984 17.9631 31.9311 17.8004 31.8112 17.6805C31.6913 17.5606 31.5286 17.4933 31.3591 17.4933H27.112C27.028 17.4928 26.9447 17.509 26.867 17.5409C26.7893 17.5729 26.7188 17.62 26.6595 17.6795C26.6001 17.739 26.5532 17.8097 26.5215 17.8875C26.4898 17.9653 26.4738 18.0486 26.4746 18.1326C26.4746 20.8398 23.5427 22.5333 21.1965 21.1778C21.0498 21.0935 20.8757 21.0709 20.7123 21.1148C20.5489 21.1587 20.4096 21.2656 20.3248 21.412L18.2013 25.0907C18.1593 25.1635 18.132 25.2438 18.1211 25.327C18.1101 25.4103 18.1157 25.4949 18.1374 25.5761C18.1592 25.6572 18.1967 25.7332 18.2479 25.7998C18.299 25.8665 18.3628 25.9224 18.4355 25.9643C20.7818 27.3179 20.7779 30.7067 18.4355 32.0584" fill="#00AEF1"/>
</svg>
