<svg width="60" height="60" viewBox="0 0 60 60" fill="none" xmlns="http://www.w3.org/2000/svg">
<path d="M17.5 45V38.75M17.5 38.75V35C17.5 33.8225 17.5 33.2325 17.885 32.865C18.27 32.5 18.8875 32.5 20.125 32.5H21.875C23.6875 32.5 25.1575 33.9 25.1575 35.625C25.1575 37.35 23.6875 38.75 21.875 38.75H17.5ZM52.5 32.5H49.22C47.1575 32.5 46.125 32.5 45.485 33.11C44.845 33.72 44.845 34.7025 44.845 36.6675V38.75M44.845 38.75V45M44.845 38.75H50.3125M39.375 38.75C39.375 42.2 36.4375 45 32.8125 45C31.995 45 31.5875 45 31.28 44.8325C30.5525 44.4325 30.625 43.62 30.625 42.9175V34.5825C30.625 33.88 30.55 33.0675 31.28 32.6675C31.585 32.5 31.995 32.5 32.8125 32.5C36.4375 32.5 39.375 35.3 39.375 38.75Z" stroke="#00AEF1" stroke-width="3" stroke-linecap="round" stroke-linejoin="round"/>
<path d="M37.5 55H26.8175C18.6675 55 14.5875 55 11.7575 53.005C10.9521 52.4402 10.2322 51.7624 9.62 50.9925C7.5 48.3275 7.5 44.4925 7.5 36.8175V30.455C7.5 23.0475 7.5 19.3425 8.6725 16.385C10.5575 11.6275 14.5425 7.8775 19.5975 6.1025C22.7375 5 26.67 5 34.545 5C39.04 5 41.29 5 43.085 5.63C45.9725 6.645 48.25 8.7875 49.3275 11.505C50 13.195 50 15.3125 50 19.545V25" stroke="#00AEF1" stroke-width="3" stroke-linecap="round" stroke-linejoin="round"/>
<path d="M7.5 30C7.5 27.7901 8.37789 25.6707 9.94053 24.108C11.5032 22.5454 13.6226 21.6675 15.8325 21.6675C17.4975 21.6675 19.46 21.9575 21.0775 21.525C21.7843 21.3348 22.4286 20.9621 22.9459 20.4444C23.4633 19.9266 23.8354 19.2819 24.025 18.575C24.4575 16.9575 24.1675 14.995 24.1675 13.33C24.1682 11.1205 25.0463 9.00175 26.6089 7.43965C28.1715 5.87754 30.2905 5 32.5 5" stroke="#00AEF1" stroke-width="3" stroke-linecap="round" stroke-linejoin="round"/>
</svg>
