<svg width="48" height="48" viewBox="0 0 48 48" fill="none" xmlns="http://www.w3.org/2000/svg">
<path d="M3.58628 19.9338H11.6469V41.3967H3.58971C3.3661 41.3971 3.1446 41.3535 2.93788 41.2682C2.73116 41.183 2.54329 41.0578 2.38501 40.8998C2.22673 40.7419 2.10116 40.5542 2.01549 40.3477C1.92981 40.1412 1.88571 39.9197 1.88571 39.6961V21.6344C1.88571 21.1834 2.06488 20.7508 2.3838 20.4319C2.70272 20.113 3.13526 19.9338 3.58628 19.9338Z" stroke="#00AEF1" stroke-width="3.42857" stroke-linecap="round" stroke-linejoin="round"/>
<path d="M11.6811 41.496L14.1326 42.72C15.0823 43.1932 16.128 43.4366 17.1909 43.4332H39.5074C40.4527 43.4327 41.3652 43.0867 42.0731 42.4603C42.781 41.8338 43.2354 40.9702 43.3509 40.032L46.0697 22.4812C46.1523 21.9351 46.1183 21.3777 45.9699 20.8458C45.8214 20.3139 45.562 19.8194 45.2085 19.395C44.8551 18.9707 44.4158 18.626 43.9195 18.3838C43.4231 18.1416 42.8811 18.0073 42.3291 17.9897H27.3943V8.09145C27.39 7.58732 27.2847 7.08915 27.0847 6.62641C26.8846 6.16366 26.5937 5.74573 26.2293 5.39732C25.8649 5.04892 25.4344 4.7771 24.9632 4.59795C24.4919 4.4188 23.9895 4.33596 23.4857 4.35431C22.845 4.34723 22.2134 4.50653 21.6527 4.81662C21.0921 5.12672 20.6214 5.577 20.2868 6.12345L11.6469 19.9337V41.3966" stroke="#00AEF1" stroke-width="3.42857" stroke-linecap="round" stroke-linejoin="round"/>
</svg>
