<svg width="48" height="48" viewBox="0 0 48 48" fill="none" xmlns="http://www.w3.org/2000/svg">
<path d="M19 19C19.7879 19 20.5681 18.8448 21.2961 18.5433C22.0241 18.2417 22.6855 17.7998 23.2426 17.2426C23.7998 16.6855 24.2417 16.0241 24.5433 15.2961C24.8448 14.5681 25 13.7879 25 13C25 12.2121 24.8448 11.4319 24.5433 10.7039C24.2417 9.97595 23.7998 9.31451 23.2426 8.75736C22.6855 8.20021 22.0241 7.75825 21.2961 7.45672C20.5681 7.15519 19.7879 7 19 7C17.4087 7 15.8826 7.63214 14.7574 8.75736C13.6321 9.88258 13 11.4087 13 13C13 14.5913 13.6321 16.1174 14.7574 17.2426C15.8826 18.3679 17.4087 19 19 19Z" stroke="#00AEF1" stroke-width="4" stroke-linecap="round" stroke-linejoin="round"/>
<path d="M32.608 7C33.643 7.62251 34.4993 8.50222 35.0936 9.55359C35.688 10.605 36.0003 11.7922 36 13C36.0003 14.2078 35.688 15.395 35.0936 16.4464C34.4993 17.4978 33.643 18.3775 32.608 19" stroke="#00AEF1" stroke-width="4" stroke-linecap="round" stroke-linejoin="round"/>
<path d="M4 42.5429V44H34V42.5429C34 37.1029 34 34.3829 33.128 32.304C32.361 30.4762 31.1372 28.9902 29.632 28.0589C27.92 27 25.68 27 21.2 27H16.8C12.32 27 10.08 27 8.368 28.0589C6.86277 28.9902 5.63898 30.4762 4.872 32.304C4 34.3829 4 37.1029 4 42.5429Z" stroke="#00AEF1" stroke-width="4" stroke-linecap="round" stroke-linejoin="round"/>
<path d="M43 42.0001V40.8001C43 36.3201 43 34.0801 42.128 32.3681C41.361 30.8628 40.1372 29.639 38.632 28.8721" stroke="#00AEF1" stroke-width="4" stroke-linecap="round" stroke-linejoin="round"/>
</svg>
