<svg width="24" height="24" viewBox="0 0 24 24" fill="none" xmlns="http://www.w3.org/2000/svg">
<path d="M18.8825 14.2827C19.4823 13.157 19.7948 11.9006 19.7923 10.6252C19.7923 6.32187 16.304 2.8335 12.0007 2.8335C7.69737 2.8335 4.209 6.32187 4.209 10.6252C4.20576 12.4632 4.8555 14.2427 6.04233 15.6462L6.0515 15.6577L6.05975 15.6668H6.04233L10.666 20.5756C10.8374 20.7575 11.0442 20.9025 11.2737 21.0016C11.5032 21.1007 11.7505 21.1518 12.0004 21.1518C12.2504 21.1518 12.4977 21.1007 12.7272 21.0016C12.9567 20.9025 13.1635 20.7575 13.3349 20.5756L17.959 15.6668H17.9416L17.9489 15.6581L17.9498 15.6572C17.9828 15.6178 18.0157 15.5781 18.0484 15.538C18.3664 15.1474 18.6457 14.7273 18.8825 14.2827ZM12.003 13.6039C11.2736 13.6039 10.5741 13.3141 10.0584 12.7984C9.54269 12.2827 9.25295 11.5832 9.25295 10.8539C9.25295 10.1245 9.54269 9.42505 10.0584 8.90933C10.5741 8.3936 11.2736 8.10387 12.003 8.10387C12.7323 8.10387 13.4318 8.3936 13.9475 8.90933C14.4632 9.42505 14.753 10.1245 14.753 10.8539C14.753 11.5832 14.4632 12.2827 13.9475 12.7984C13.4318 13.3141 12.7323 13.6039 12.003 13.6039Z" fill="#00AEF1"/>
</svg>
