<svg width="34" height="34" viewBox="0 0 34 34" fill="none" xmlns="http://www.w3.org/2000/svg">
<circle cx="26.3098" cy="25.5" r="2.64286" stroke="#00AEF1" stroke-width="2"/>
<path d="M31.5716 20.2381H32.5716V19.9353L32.4036 19.6834L31.5716 20.2381ZM28.3335 15.381L29.1655 14.8263L28.8687 14.381H28.3335V15.381ZM23.4763 15.381V14.381H22.4763V15.381H23.4763ZM10.9287 20.2381L10.35 19.4226C9.99499 19.6745 9.84375 20.1271 9.97595 20.5418C10.1082 20.9566 10.4934 21.2381 10.9287 21.2381V20.2381ZM30.762 11.3334V12.3334H31.762V11.3334H30.762ZM30.762 5.66669H31.762V4.66669H30.762V5.66669ZM23.4763 5.66669V4.66669H23.1538L22.892 4.85515L23.4763 5.66669ZM3.23823 20.2381L2.65393 19.4266L2.45399 19.5705L2.34381 19.7909L3.23823 20.2381ZM2.42871 21.8572L1.53428 21.41L1.42871 21.6211V21.8572H2.42871ZM32.5716 25.9048V20.2381H30.5716V25.9048H32.5716ZM32.4036 19.6834L29.1655 14.8263L27.5014 15.9357L30.7395 20.7928L32.4036 19.6834ZM28.3335 14.381H23.4763V16.381H28.3335V14.381ZM22.4763 15.381V20.2381H24.4763V15.381H22.4763ZM23.4763 21.2381H31.5716V19.2381H23.4763V21.2381ZM23.4763 12.3334H30.762V10.3334H23.4763V12.3334ZM31.762 11.3334V5.66669H29.762V11.3334H31.762ZM30.762 4.66669H23.4763V6.66669H30.762V4.66669ZM22.4763 5.66669V11.3334H24.4763V5.66669H22.4763ZM22.892 4.85515L2.65393 19.4266L3.82254 21.0497L24.0606 6.47822L22.892 4.85515ZM2.34381 19.7909L1.53428 21.41L3.32314 22.3044L4.13266 20.6853L2.34381 19.7909ZM1.42871 21.8572V25.9048H3.42871V21.8572H1.42871ZM23.4763 19.2381H22.6668V21.2381H23.4763V19.2381ZM22.6668 19.2381H10.9287V21.2381H22.6668V19.2381ZM11.5075 21.0536L18.3731 16.1812L17.2156 14.5502L10.35 19.4226L11.5075 21.0536ZM18.3731 16.1812L24.0551 12.1489L22.8976 10.5178L17.2156 14.5502L18.3731 16.1812ZM23.3739 19.531L18.5015 14.6586L17.0873 16.0728L21.9597 20.9452L23.3739 19.531ZM12.5478 26.9048H21.4525V24.9048H12.5478V26.9048Z" fill="#00AEF1"/>
<circle cx="7.69071" cy="25.5" r="2.64286" stroke="#00AEF1" stroke-width="2"/>
</svg>
