<svg width="34" height="34" viewBox="0 0 34 34" fill="none" xmlns="http://www.w3.org/2000/svg">
<path fill-rule="evenodd" clip-rule="evenodd" d="M31.3925 7.40565L29.735 7.01465L25.2555 11.4686L22.7182 8.88465L27.0872 4.30102L26.7047 2.61802C25.7817 2.30848 24.8159 2.14501 23.8424 2.13352C22.7802 2.11473 21.7258 2.31737 20.7462 2.72852C19.7991 3.15584 18.9434 3.76192 18.226 4.51352C17.4247 5.26942 16.7913 6.18525 16.3666 7.20165C15.5457 9.22236 15.5457 11.4837 16.3666 13.5044C11.9364 17.8627 7.56353 22.2788 3.249 26.7516C2.80275 27.336 2.59025 28.0649 2.6455 28.798C2.66672 29.1885 2.76473 29.571 2.93391 29.9236C3.1031 30.2762 3.34015 30.592 3.6315 30.8529C3.89783 31.1433 4.20737 31.3756 4.56012 31.5499C4.92137 31.7093 5.31025 31.8006 5.70337 31.8198C6.37487 31.807 7.01875 31.552 7.51812 31.1036C10.8076 28.0075 17.1104 21.6474 20.691 17.9201C21.6621 18.3324 22.7055 18.5449 23.7595 18.5428C24.8204 18.5415 25.8703 18.3277 26.8473 17.9142C27.8243 17.5007 28.7086 16.8958 29.4481 16.1351C30.9636 14.5847 31.8112 12.502 31.809 10.3339C31.834 9.34144 31.6932 8.35177 31.3925 7.40565ZM6.2325 29.597C6.15124 29.6704 6.05244 29.7216 5.94562 29.7458C5.84101 29.7656 5.73361 29.7656 5.629 29.7458C5.51923 29.7288 5.41468 29.6874 5.323 29.6246C5.22497 29.5669 5.14197 29.4868 5.08075 29.3909C4.78325 29.087 4.50487 28.509 4.78325 28.1839C7.6945 25.0878 13.6891 19.0358 17.4376 15.3361C17.6501 15.6181 17.8825 15.8844 18.1346 16.1351C18.3854 16.3972 18.6545 16.6388 18.9421 16.8598C15.3169 20.5785 9.403 26.5583 6.2325 29.597ZM29.8582 10.3339C29.8625 11.9595 29.2292 13.5214 28.0902 14.6859C26.9539 15.8014 25.4252 16.4263 23.8328 16.4263C22.2405 16.4263 20.7117 15.8014 19.5754 14.6859C18.7419 13.8168 18.1725 12.7288 17.9336 11.5486C17.6947 10.3684 17.7961 9.14457 18.226 8.01977C18.512 7.25434 18.9554 6.5574 19.5275 5.97395C20.0996 5.39051 20.7877 4.93353 21.5474 4.63252C22.2695 4.33274 23.0435 4.17822 23.8254 4.17777H24.3651L20.504 8.1579V9.6369L24.5309 13.6446H25.9334L29.8582 9.78565V10.3339ZM6.88487 14.212H10.1382L11.6364 15.7356L13.0771 14.3034L11.664 12.8626V12.7713L11.7851 9.26715L11.3176 8.33852L5.24012 4.33927L3.98425 4.47952L2.21838 6.28365L2.07812 7.55652L5.98387 13.7573L6.88487 14.212ZM4.87675 6.49402L9.794 9.73252L9.71112 12.1189H7.42462L4.25413 7.09965L4.87675 6.49402ZM19.9749 21.284L21.4071 19.8539L28.0074 26.622C28.5628 27.2065 28.8726 27.9821 28.8726 28.7885C28.8726 29.5948 28.5628 30.3704 28.0074 30.9549C27.59 31.3851 27.0524 31.6791 26.4651 31.7986C25.8777 31.918 25.268 31.8573 24.7157 31.6243C24.3629 31.4684 24.0465 31.2404 23.7871 30.9549L17.1104 24.1485L18.5532 22.7078L25.2087 29.495C25.2981 29.5938 25.4095 29.6703 25.5339 29.7181C25.7786 29.8168 26.052 29.8168 26.2967 29.7181C26.4211 29.6703 26.5325 29.5938 26.6219 29.495C26.7169 29.4045 26.7896 29.2932 26.8344 29.1699C26.8843 29.0455 26.9103 28.9129 26.9109 28.7789C26.9067 28.6455 26.8816 28.5135 26.8365 28.3879C26.7917 28.2646 26.719 28.1533 26.624 28.0628L19.9749 21.284Z" fill="#00AEF1"/>
</svg>
