<svg width="36" height="36" viewBox="0 0 36 36" fill="none" xmlns="http://www.w3.org/2000/svg">
<path d="M7.20252 7.77171C7.53253 7.95718 7.90596 8.05414 8.28569 8.05295C8.66542 8.05177 9.03822 7.95247 9.36704 7.76494C9.69586 7.5774 9.96926 7.30816 10.16 6.98397C10.3508 6.65978 10.4524 6.29193 10.4546 5.91699H12.6421C12.6442 6.29214 12.7457 6.66023 12.9366 6.98462C13.1274 7.30901 13.401 7.57839 13.73 7.76596C14.0591 7.95354 14.4321 8.05277 14.8121 8.05377C15.192 8.05478 15.5656 7.95753 15.8956 7.77171L16.9894 9.64083C17.5975 9.30531 18.3252 9.08355 19.0661 8.95251C19.0213 8.82291 18.963 8.69619 18.8911 8.57235L17.7842 6.68162C17.498 6.19098 17.0269 5.83195 16.4737 5.68279C15.9206 5.53362 15.3301 5.60642 14.8311 5.8853C14.8261 5.31901 14.5945 4.77763 14.1869 4.37921C13.7793 3.98079 13.2288 3.75764 12.6552 3.75842H10.4444C9.24856 3.75842 8.27877 4.70882 8.26856 5.88674C7.76937 5.6074 7.17856 5.53435 6.62503 5.68354C6.07151 5.83273 5.60021 6.19204 5.31397 6.68306L4.20856 8.57235C3.61064 9.59475 3.96064 10.8994 4.98731 11.497C4.49277 11.7842 4.13334 12.2529 3.98744 12.8008C3.84155 13.3487 3.92104 13.9314 4.20856 14.4216L5.31397 16.3123C5.91189 17.3347 7.23022 17.6875 8.26856 17.1087C8.27731 17.9986 8.83439 18.7603 9.62189 19.0786C9.61752 18.2563 9.82606 17.4226 10.2738 16.6594L10.3729 16.4895C10.2808 16.1774 10.1183 15.8901 9.89764 15.649C9.67695 15.4078 9.4038 15.2192 9.0987 15.0973C8.79361 14.9753 8.46449 14.9232 8.13608 14.9449C7.80767 14.9665 7.48849 15.0614 7.20252 15.2223L6.10877 13.3517C7.54522 12.5223 7.54522 10.4717 6.10877 9.64227L7.20252 7.77171Z" fill="#00AEF1"/>
<path d="M11.5498 13.6569C12.13 13.6569 12.6864 13.4293 13.0966 13.0243C13.5068 12.6192 13.7373 12.0698 13.7373 11.4969C13.7373 10.924 13.5068 10.3746 13.0966 9.96956C12.6864 9.56448 12.13 9.33691 11.5498 9.33691C10.9696 9.33691 10.4132 9.56448 10.003 9.96956C9.59277 10.3746 9.3623 10.924 9.3623 11.4969C9.3623 12.0698 9.59277 12.6192 10.003 13.0243C10.4132 13.4293 10.9696 13.6569 11.5498 13.6569Z" fill="#00AEF1"/>
<path fill-rule="evenodd" clip-rule="evenodd" d="M17.9746 21.7584C17.9746 20.5879 18.4455 19.4653 19.2838 18.6376C20.122 17.8099 21.2589 17.3448 22.4444 17.3448C23.6299 17.3448 24.7668 17.8099 25.605 18.6376C26.4433 19.4653 26.9142 20.5879 26.9142 21.7584C26.9142 22.929 26.4433 24.0516 25.605 24.8793C24.7668 25.707 23.6299 26.172 22.4444 26.172C21.2589 26.172 20.122 25.707 19.2838 24.8793C18.4455 24.0516 17.9746 22.929 17.9746 21.7584ZM22.4459 19.5063C22.1461 19.5063 21.8494 19.5646 21.5725 19.6778C21.2956 19.7911 21.044 19.9571 20.832 20.1664C20.6201 20.3756 20.452 20.6241 20.3373 20.8975C20.2226 21.1709 20.1636 21.4639 20.1636 21.7599C20.1636 22.0558 20.2226 22.3489 20.3373 22.6223C20.452 22.8957 20.6201 23.1442 20.832 23.3534C21.044 23.5627 21.2956 23.7287 21.5725 23.8419C21.8494 23.9552 22.1461 24.0135 22.4459 24.0135C23.0512 24.0135 23.6317 23.7761 24.0597 23.3534C24.4877 22.9308 24.7281 22.3576 24.7281 21.7599C24.7281 21.1622 24.4877 20.589 24.0597 20.1664C23.6317 19.7437 23.0512 19.5063 22.4459 19.5063Z" fill="#00AEF1"/>
<path fill-rule="evenodd" clip-rule="evenodd" d="M12.1684 25.7803C11.9926 25.4801 11.8785 25.1485 11.8325 24.8047C11.7866 24.4609 11.8097 24.1115 11.9006 23.7765C11.9915 23.4415 12.1483 23.1275 12.3622 22.8523C12.576 22.5772 12.8427 22.3464 13.1469 22.1731C13.2205 22.131 13.2815 22.0705 13.324 21.9977C13.3664 21.9249 13.3887 21.8424 13.3887 21.7584C13.3887 21.6744 13.3664 21.5919 13.324 21.5191C13.2815 21.4463 13.2205 21.3858 13.1469 21.3437C12.5331 20.9934 12.0854 20.4168 11.9021 19.7406C11.7189 19.0644 11.8152 18.344 12.1698 17.7379L13.7827 14.9789C14.1374 14.3732 14.7211 13.9314 15.4056 13.7505C16.0901 13.5696 16.8192 13.6644 17.4329 14.0141C17.5066 14.0564 17.5903 14.0788 17.6756 14.079C17.7609 14.0791 17.8447 14.057 17.9185 14.0149C17.9923 13.9729 18.0536 13.9123 18.0961 13.8393C18.1387 13.7663 18.1609 13.6835 18.1606 13.5994C18.1606 12.1421 19.3565 10.9598 20.8323 10.9598H24.0596C25.5369 10.9598 26.7327 12.1421 26.7327 13.5994C26.7327 13.968 27.1367 14.1984 27.459 14.0141C27.7627 13.8403 28.0982 13.7275 28.4461 13.6819C28.7941 13.6364 29.1477 13.6591 29.4868 13.7487C29.8259 13.8383 30.1437 13.9931 30.4221 14.2042C30.7005 14.4153 30.934 14.6786 31.1092 14.9789L32.7236 17.7408C32.8993 18.0406 33.0134 18.3718 33.0594 18.7152C33.1054 19.0586 33.0823 19.4077 32.9916 19.7423C32.9008 20.0769 32.7442 20.3906 32.5305 20.6654C32.3169 20.9402 32.0504 21.1707 31.7465 21.3437C31.6725 21.3855 31.6111 21.4459 31.5684 21.5188C31.5257 21.5916 31.5032 21.6742 31.5032 21.7584C31.5032 21.8426 31.5257 21.9252 31.5684 21.998C31.6111 22.0709 31.6725 22.1313 31.7465 22.1731C32.3599 22.5234 32.8073 23.0997 32.9905 23.7756C33.1737 24.4514 33.0777 25.1715 32.7236 25.7774L31.1121 28.5365C30.9366 28.8367 30.7029 29.0998 30.4244 29.3109C30.1459 29.5219 29.828 29.6767 29.4889 29.7664C29.1498 29.8561 28.7962 29.879 28.4481 29.8338C28.1001 29.7885 27.7645 29.676 27.4604 29.5027C27.3866 29.4605 27.3029 29.4382 27.2176 29.4381C27.1323 29.4379 27.0484 29.46 26.9745 29.5021C26.9006 29.5441 26.8392 29.6046 26.7965 29.6775C26.7538 29.7505 26.7313 29.8332 26.7313 29.9174C26.7313 31.3762 25.5354 32.557 24.0596 32.557H20.8338C20.1251 32.557 19.4454 32.2791 18.9441 31.7844C18.4428 31.2897 18.161 30.6187 18.1606 29.9189C18.1606 29.8346 18.1381 29.7519 18.0954 29.679C18.0527 29.6061 17.9913 29.5455 17.9174 29.5035C17.8435 29.4615 17.7597 29.4394 17.6744 29.4395C17.589 29.4396 17.5053 29.4619 17.4315 29.5042C16.8176 29.8537 16.0883 29.9483 15.4038 29.7672C14.7193 29.586 14.1357 29.1438 13.7813 28.5379L12.1684 25.7803ZM14.2406 24.0437C14.1852 24.0752 14.1366 24.1171 14.0976 24.1672C14.0586 24.2173 14.03 24.2745 14.0135 24.3355C13.997 24.3965 13.9928 24.4601 14.0013 24.5228C14.0097 24.5854 14.0306 24.6457 14.0627 24.7003L15.6756 27.4579C15.8098 27.6883 16.1059 27.7661 16.3392 27.6336C18.1198 26.6184 20.3481 27.887 20.3481 29.9189C20.3481 30.1824 20.5654 30.397 20.8338 30.397H24.0596C24.1884 30.397 24.3119 30.3464 24.403 30.2565C24.4941 30.1666 24.5452 30.0446 24.5452 29.9174C24.5452 27.887 26.7721 26.617 28.5542 27.6322C28.7875 27.7646 29.0836 27.6854 29.2177 27.4565L30.8306 24.6974C30.8946 24.5874 30.9118 24.4568 30.8785 24.3343C30.8451 24.2117 30.7639 24.1072 30.6527 24.0437C28.8721 23.0285 28.8706 20.4898 30.6527 19.4731C30.7079 19.4419 30.7563 19.4003 30.7951 19.3505C30.8339 19.3008 30.8623 19.2439 30.8787 19.1833C30.8951 19.1226 30.8992 19.0594 30.8907 18.9972C30.8822 18.9349 30.8613 18.875 30.8292 18.8208L29.2148 16.0603C29.1834 16.0055 29.1412 15.9574 29.0908 15.9189C29.0403 15.8803 28.9826 15.852 28.921 15.8357C28.8594 15.8193 28.7951 15.8152 28.7319 15.8236C28.6687 15.832 28.6078 15.8528 28.5527 15.8846C26.7721 16.9013 24.5452 15.6298 24.5452 13.5994C24.5452 13.4722 24.4941 13.3502 24.403 13.2603C24.3119 13.1704 24.1884 13.1198 24.0596 13.1198H20.8338C20.77 13.1195 20.7067 13.1316 20.6477 13.1556C20.5887 13.1796 20.5351 13.2149 20.49 13.2595C20.445 13.3041 20.4094 13.3572 20.3852 13.4155C20.3611 13.4739 20.349 13.5363 20.3496 13.5994C20.3496 15.6298 18.1227 16.8998 16.3406 15.8832C16.2292 15.82 16.0969 15.803 15.9728 15.836C15.8487 15.8689 15.7429 15.9491 15.6786 16.0589L14.0656 18.8179C14.0337 18.8725 14.013 18.9327 14.0047 18.9952C13.9964 19.0576 14.0006 19.1211 14.0171 19.1819C14.0336 19.2428 14.0621 19.2998 14.101 19.3498C14.1399 19.3997 14.1883 19.4416 14.2436 19.4731C16.0256 20.4883 16.0227 23.0299 14.2436 24.0437" fill="#00AEF1"/>
</svg>
