<svg width="34" height="34" viewBox="0 0 34 34" fill="none" xmlns="http://www.w3.org/2000/svg">
<g clip-path="url(#clip0_731_1660)">
<path d="M9.10633 22.2303C9.54644 22.2303 9.91856 22.0764 10.2227 21.7685C10.5277 21.4597 10.6803 21.0852 10.6803 20.6451C10.6803 20.204 10.5258 19.831 10.217 19.5259C9.90817 19.2228 9.53369 19.0712 9.09358 19.0712C8.65253 19.0712 8.27947 19.2251 7.97442 19.533C7.67125 19.8418 7.51967 20.2168 7.51967 20.6578C7.51967 21.0979 7.67361 21.4701 7.9815 21.7742C8.29033 22.0783 8.66528 22.2303 9.10633 22.2303Z" fill="#00AEF1"/>
<path d="M5.66667 24.0833V17.2182H17.6262C17.8292 17.2182 17.9978 17.1506 18.1319 17.0156C18.266 16.8805 18.3336 16.7124 18.3345 16.5112C18.3354 16.3101 18.2679 16.1415 18.1319 16.0055C17.9959 15.8695 17.8273 15.8015 17.6262 15.8015H6.256L8.34275 9.91667H16C16.2002 9.91667 16.3683 9.84914 16.5043 9.71408C16.6403 9.57903 16.7083 9.41092 16.7083 9.20975C16.7083 9.00858 16.6403 8.84 16.5043 8.704C16.3683 8.568 16.2002 8.5 16 8.5H8.11892C7.87714 8.5 7.65756 8.56139 7.46017 8.68417C7.26372 8.80883 7.13103 8.98356 7.06208 9.20833L4.36475 16.8385C4.31753 16.9622 4.28683 17.0888 4.27267 17.2182C4.25756 17.3476 4.25 17.4765 4.25 17.6049V27.4621C4.25 27.7048 4.33406 27.9102 4.50217 28.0783C4.67028 28.2483 4.87569 28.3333 5.11842 28.3333C5.36208 28.3333 5.56892 28.2483 5.73892 28.0783C5.90892 27.9093 5.99392 27.7039 5.99392 27.4621V25.5H17.6262C17.8292 25.5 17.9979 25.4325 18.132 25.2974C18.2661 25.1624 18.3336 24.9942 18.3346 24.7931C18.3355 24.5919 18.268 24.4233 18.132 24.2873C17.996 24.1513 17.8273 24.0833 17.6262 24.0833H5.66667Z" fill="#00AEF1"/>
<path d="M9.10633 22.2303C9.54644 22.2303 9.91856 22.0764 10.2227 21.7685C10.5277 21.4597 10.6803 21.0852 10.6803 20.6451C10.6803 20.204 10.5258 19.831 10.217 19.5259C9.90817 19.2228 9.53369 19.0712 9.09358 19.0712C8.65253 19.0712 8.27947 19.2251 7.97442 19.533C7.67125 19.8418 7.51967 20.2168 7.51967 20.6578C7.51967 21.0979 7.67361 21.4701 7.9815 21.7742C8.29033 22.0783 8.66528 22.2303 9.10633 22.2303Z" stroke="#00AEF1" stroke-width="0.6"/>
<path d="M5.66667 24.0833V17.2182H17.6262C17.8292 17.2182 17.9978 17.1506 18.1319 17.0156C18.266 16.8805 18.3336 16.7124 18.3345 16.5112C18.3354 16.3101 18.2679 16.1415 18.1319 16.0055C17.9959 15.8695 17.8273 15.8015 17.6262 15.8015H6.256L8.34275 9.91667H16C16.2002 9.91667 16.3683 9.84914 16.5043 9.71408C16.6403 9.57903 16.7083 9.41092 16.7083 9.20975C16.7083 9.00858 16.6403 8.84 16.5043 8.704C16.3683 8.568 16.2002 8.5 16 8.5H8.11892C7.87714 8.5 7.65756 8.56139 7.46017 8.68417C7.26372 8.80883 7.13103 8.98356 7.06208 9.20833L4.36475 16.8385C4.31753 16.9622 4.28683 17.0888 4.27267 17.2182C4.25756 17.3476 4.25 17.4765 4.25 17.6049V27.4621C4.25 27.7048 4.33406 27.9102 4.50217 28.0783C4.67028 28.2483 4.87569 28.3333 5.11842 28.3333C5.36208 28.3333 5.56892 28.2483 5.73892 28.0783C5.90892 27.9093 5.99392 27.7039 5.99392 27.4621V25.5H17.6262C17.8292 25.5 17.9979 25.4325 18.132 25.2974C18.2661 25.1624 18.3336 24.9942 18.3346 24.7931C18.3355 24.5919 18.268 24.4233 18.132 24.2873C17.996 24.1513 17.8273 24.0833 17.6262 24.0833H5.66667Z" stroke="#00AEF1" stroke-width="0.6"/>
<path d="M26.7341 10.9864C26.732 11.2003 26.6461 11.4048 26.4949 11.5561C26.3436 11.7073 26.1391 11.7932 25.9252 11.7954L24.0766 11.7954C23.8627 11.7932 23.6582 11.7073 23.5069 11.5561C23.3557 11.4048 23.2698 11.2003 23.2677 10.9864L23.267 7.87803C23.2664 7.27466 22.6606 6.8653 22.1677 7.21304C21.5227 7.66832 20.9972 8.27265 20.6359 8.97462C20.2746 9.67659 20.0881 10.4554 20.0924 11.2449C20.0968 12.0344 20.2917 12.8112 20.6606 13.5092C21.0296 14.2071 21.5617 14.8057 22.2116 15.2539C22.8034 15.6626 23.2664 16.2819 23.267 16.9999L23.2664 27.231C23.2618 27.4617 23.3033 27.6909 23.3883 27.9053C23.4734 28.1197 23.6004 28.315 23.7618 28.4797C23.9233 28.6444 24.116 28.7753 24.3286 28.8646C24.5413 28.9539 24.7696 28.9999 25.0003 28.9999C25.2309 28.9999 25.4593 28.9539 25.6719 28.8646C25.8846 28.7753 26.0773 28.6444 26.2388 28.4797C26.4002 28.315 26.5272 28.1197 26.6122 27.9053C26.6973 27.6909 26.7387 27.4617 26.7341 27.2311L26.7335 16.9999C26.7341 16.2819 27.1978 15.662 27.789 15.2539C28.4386 14.8054 28.9703 14.2068 29.339 13.5089C29.7077 12.8109 29.9025 12.0343 29.9068 11.2449C29.9111 10.4556 29.7248 9.67685 29.3638 8.97491C29.0027 8.27297 28.4775 7.66857 27.8329 7.21304C27.3393 6.86591 26.7341 7.27466 26.7335 7.87803L26.7341 10.9864Z" stroke="#00AEF1" stroke-width="2" stroke-linecap="round" stroke-linejoin="round"/>
</g>
<defs>
<clipPath id="clip0_731_1660">
<rect width="34" height="34" fill="white"/>
</clipPath>
</defs>
</svg>
