<svg width="34" height="34" viewBox="0 0 34 34" fill="none" xmlns="http://www.w3.org/2000/svg">
<path d="M30.6711 22.6877C30.3023 22.4066 29.8728 22.2136 29.4162 22.1236C28.9596 22.0337 28.4882 22.0492 28.0387 22.1691L22.8532 23.3484C22.9739 22.8443 22.9776 22.3197 22.8641 21.814C22.7507 21.3082 22.5229 20.8344 22.198 20.4281C21.8731 20.0218 21.4595 19.6935 20.9881 19.4678C20.5166 19.2422 19.9997 19.125 19.476 19.125H13.2718C12.7507 19.1237 12.2346 19.2246 11.7532 19.4217C11.2718 19.6189 10.8347 19.9085 10.4671 20.2737L7.66368 23.0481H4.10797C3.58205 23.0481 3.07768 23.2547 2.7058 23.6226C2.33392 23.9905 2.125 24.4894 2.125 25.0096L2.125 29.9135C2.125 30.4337 2.33392 30.9326 2.7058 31.3005C3.07768 31.6683 3.58205 31.875 4.10797 31.875H16.9973C17.0783 31.875 17.1591 31.8651 17.2377 31.8456L25.1696 29.884C25.2201 29.8721 25.2695 29.8557 25.3171 29.835L30.1344 27.8073L30.189 27.7827C30.652 27.5539 31.0484 27.2122 31.341 26.7899C31.6336 26.3676 31.8127 25.8786 31.8615 25.3689C31.9102 24.8592 31.8269 24.3456 31.6195 23.8765C31.4122 23.4074 31.0875 22.9983 30.676 22.6877H30.6711ZM4.10797 25.0096H7.08242V29.9135H4.10797V25.0096ZM29.3202 26.0161L24.6106 27.9997L16.8733 29.9135H9.06539V24.4346L11.8701 21.6615C12.0535 21.4786 12.2719 21.3335 12.5126 21.2348C12.7532 21.1361 13.0113 21.0857 13.2718 21.0865H19.476C19.8704 21.0865 20.2487 21.2415 20.5276 21.5174C20.8065 21.7933 20.9632 22.1675 20.9632 22.5577C20.9632 22.9479 20.8065 23.3221 20.5276 23.598C20.2487 23.8739 19.8704 24.0289 19.476 24.0289H16.0058C15.7428 24.0289 15.4906 24.1322 15.3047 24.3161C15.1188 24.5 15.0143 24.7495 15.0143 25.0096C15.0143 25.2697 15.1188 25.5192 15.3047 25.7031C15.4906 25.8871 15.7428 25.9904 16.0058 25.9904H19.9717C20.0464 25.9902 20.1207 25.982 20.1936 25.9659L28.4973 24.0767L28.5357 24.0669C28.7892 23.9972 29.0597 24.0228 29.2953 24.1387C29.5309 24.2545 29.7148 24.4525 29.8117 24.6944C29.9086 24.9363 29.9116 25.2052 29.8202 25.4492C29.7288 25.6932 29.5494 25.8951 29.3165 26.0161H29.3202Z" fill="#00AEF1"/>
<path d="M8.5 9.56323C8.5 9.28128 8.612 9.01088 8.81137 8.81151L13.0614 4.56151C13.1601 4.46273 13.2772 4.38436 13.4062 4.33089C13.5352 4.27742 13.6735 4.2499 13.8131 4.2499C13.9527 4.2499 14.091 4.27742 14.22 4.33089C14.349 4.38436 14.4661 4.46273 14.5648 4.56151L18.8148 8.81151C19.0142 9.01088 19.1262 9.28128 19.1262 9.56323C19.1262 9.84518 19.0142 10.1156 18.8148 10.315C18.6154 10.5143 18.345 10.6263 18.0631 10.6263C17.7811 10.6263 17.5107 10.5143 17.3114 10.315L14.8756 7.87784V15.9382C14.8756 16.22 14.7637 16.4903 14.5644 16.6895C14.3651 16.8888 14.0949 17.0007 13.8131 17.0007C13.5313 17.0007 13.261 16.8888 13.0618 16.6895C12.8625 16.4903 12.7506 16.22 12.7506 15.9382V7.87784L10.3148 10.315C10.1154 10.5143 9.84504 10.6263 9.56309 10.6263C9.28114 10.6263 9.01074 10.5143 8.81137 10.315C8.612 10.1156 8.5 9.84518 8.5 9.56323Z" fill="#00AEF1"/>
<path d="M21.25 11.6875C21.25 11.9694 21.362 12.2399 21.5614 12.4392L25.8114 16.6892C25.9101 16.788 26.0272 16.8664 26.1562 16.9198C26.2852 16.9733 26.4235 17.0008 26.5631 17.0008C26.7027 17.0008 26.841 16.9733 26.97 16.9198C27.099 16.8664 27.2161 16.788 27.3148 16.6892L31.5648 12.4392C31.7642 12.2399 31.8762 11.9694 31.8762 11.6875C31.8762 11.4056 31.7642 11.1351 31.5648 10.9358C31.3654 10.7364 31.095 10.6244 30.8131 10.6244C30.5311 10.6244 30.2607 10.7364 30.0614 10.9358L27.6256 13.3729V5.3125C27.6256 5.03071 27.5137 4.76046 27.3144 4.5612C27.1151 4.36194 26.8449 4.25 26.5631 4.25C26.2813 4.25 26.011 4.36194 25.8118 4.5612C25.6125 4.76046 25.5006 5.03071 25.5006 5.3125V13.3729L23.0648 10.9358C22.8654 10.7364 22.595 10.6244 22.3131 10.6244C22.0311 10.6244 21.7607 10.7364 21.5614 10.9358C21.362 11.1351 21.25 11.4056 21.25 11.6875Z" fill="#00AEF1"/>
</svg>
