<svg width="34" height="34" viewBox="0 0 34 34" fill="none" xmlns="http://www.w3.org/2000/svg">
<path d="M9.10633 23.2303C9.54644 23.2303 9.91856 23.0764 10.2227 22.7685C10.5277 22.4597 10.6803 22.0852 10.6803 21.6451C10.6803 21.204 10.5258 20.831 10.217 20.5259C9.90817 20.2228 9.53369 20.0712 9.09358 20.0712C8.65253 20.0712 8.27947 20.2251 7.97442 20.533C7.67125 20.8418 7.51967 21.2168 7.51967 21.6578C7.51967 22.0979 7.67361 22.4701 7.9815 22.7742C8.29033 23.0783 8.66528 23.2303 9.10633 23.2303ZM22.0674 23.2303C22.4849 23.2303 22.8419 23.0934 23.1384 22.8195C23.434 22.5456 23.5955 22.2023 23.6229 21.7896C23.2234 21.6763 22.8428 21.5171 22.4811 21.3122C22.1194 21.1072 21.7709 20.8451 21.4356 20.5259L21.2316 20.3219C21.0134 20.456 20.8349 20.6416 20.6961 20.8787C20.5573 21.1167 20.4878 21.374 20.4878 21.6508C20.4878 22.0899 20.6413 22.463 20.9482 22.7699C21.2552 23.0769 21.6283 23.2303 22.0674 23.2303ZM4.25 18.6049C4.25 18.4765 4.25756 18.3476 4.27267 18.2182C4.28683 18.0888 4.31753 17.9622 4.36475 17.8385L7.06208 10.2083C7.13103 9.98356 7.26372 9.80883 7.46017 9.68417C7.65756 9.56139 7.87714 9.5 8.11892 9.5H12.206C12.4062 9.5 12.5743 9.568 12.7103 9.704C12.8463 9.84 12.9143 10.0086 12.9143 10.2098C12.9143 10.4109 12.8463 10.579 12.7103 10.7141C12.5743 10.8491 12.4062 10.9167 12.206 10.9167H8.34275L6.256 16.8015H17.6262C17.8273 16.8015 17.9959 16.8695 18.1319 17.0055C18.2679 17.1415 18.3354 17.3101 18.3345 17.5113C18.3336 17.7124 18.266 17.8805 18.1319 18.0156C17.9978 18.1506 17.8292 18.2182 17.6262 18.2182H5.66667V25.0833H25.5V23.5307C25.5 23.3295 25.568 23.1614 25.704 23.0263C25.84 22.8913 26.0086 22.8233 26.2098 22.8223C26.4109 22.8214 26.579 22.8894 26.7141 23.0263C26.8491 23.1633 26.9167 23.3314 26.9167 23.5307V28.4607C26.9167 28.7034 26.8317 28.9093 26.6617 29.0783C26.4917 29.2483 26.2848 29.3333 26.0412 29.3333C25.7984 29.3333 25.593 29.2483 25.4249 29.0783C25.2568 28.9093 25.1728 28.7034 25.1728 28.4607V26.5H5.99392V28.4621C5.99392 28.7039 5.90892 28.9093 5.73892 29.0783C5.56892 29.2483 5.36208 29.3333 5.11842 29.3333C4.87569 29.3333 4.67028 29.2483 4.50217 29.0783C4.33406 28.9102 4.25 28.7048 4.25 28.4621V18.6049ZM21.25 9.11892C21.5428 9.11892 21.7883 9.01975 21.9867 8.82142C22.185 8.62308 22.2842 8.37753 22.2842 8.08475C22.2842 7.79197 22.185 7.54594 21.9867 7.34667C21.7883 7.14739 21.5428 7.04822 21.25 7.04917C20.9572 7.05011 20.7117 7.14928 20.5133 7.34667C20.315 7.54406 20.2158 7.78961 20.2158 8.08333C20.2158 8.37706 20.315 8.62261 20.5133 8.82C20.7117 9.01739 20.9572 9.11797 21.25 9.11892ZM23.7462 18.0708L16.7932 11.1178C16.6449 10.9696 16.524 10.7892 16.4305 10.5767C16.337 10.3642 16.2907 10.146 16.2917 9.92217V4.842C16.2917 4.34144 16.4584 3.93061 16.7917 3.6095C17.1261 3.2865 17.5317 3.125 18.0087 3.125H23.0888C23.3117 3.125 23.5299 3.17128 23.7433 3.26383C23.9568 3.35639 24.1372 3.47728 24.2845 3.6265L31.2375 10.5795C31.5841 10.9261 31.7574 11.3322 31.7574 11.7978C31.7574 12.2644 31.5841 12.6705 31.2375 13.0162L26.1843 18.0708C25.8367 18.4174 25.4301 18.5908 24.9645 18.5908C24.4989 18.5908 24.0928 18.4174 23.7462 18.0708ZM24.3412 16.6825C24.5055 16.8449 24.7104 16.9262 24.956 16.9262C25.2006 16.9262 25.4046 16.8445 25.568 16.6811L29.8478 12.4013C30.0111 12.2379 30.0928 12.0335 30.0928 11.7879C30.0928 11.5424 30.0111 11.3384 29.8478 11.1759L23.4586 4.78675C23.3679 4.69608 23.2683 4.63281 23.1597 4.59692C23.0511 4.56103 22.9424 4.54261 22.8338 4.54167H18.1447C18.0172 4.54167 17.9123 4.58275 17.8302 4.66492C17.748 4.74708 17.7074 4.85097 17.7083 4.97658V9.66575C17.7083 9.77531 17.7268 9.88439 17.7636 9.993C17.7995 10.1026 17.8628 10.2027 17.9534 10.2933L24.3412 16.6825Z" fill="#00AEF1" stroke="#00AEF1" stroke-width="0.6"/>
</svg>
