<svg width="32" height="32" viewBox="0 0 32 32" fill="none" xmlns="http://www.w3.org/2000/svg">
<path d="M30.5007 8.6609C30.3267 8.01777 29.9872 7.43144 29.5161 6.96031C29.045 6.48918 28.4587 6.14969 27.8156 5.97563C25.4611 5.3335 15.9851 5.3335 15.9851 5.3335C15.9851 5.3335 6.50856 5.35293 4.15407 5.99507C3.51093 6.16913 2.92461 6.50865 2.4535 6.9798C1.98239 7.45095 1.64293 8.0373 1.46892 8.68046C0.756738 12.8639 0.480471 19.2386 1.48847 23.2547C1.6625 23.8978 2.00197 24.4841 2.47308 24.9553C2.94419 25.4264 3.5305 25.7659 4.17363 25.94C6.52812 26.5821 16.0044 26.5821 16.0044 26.5821C16.0044 26.5821 25.4805 26.5821 27.8349 25.94C28.478 25.7659 29.0644 25.4264 29.5355 24.9553C30.0066 24.4842 30.3461 23.8978 30.5202 23.2547C31.2713 19.0653 31.5028 12.6946 30.5007 8.6609Z" fill="#004B9A"/>
<path d="M12.9688 20.5108L20.8298 15.9575L12.9688 11.4043V20.5108Z" fill="white"/>
</svg>
