<svg width="213" height="32" viewBox="0 0 213 32" fill="none" xmlns="http://www.w3.org/2000/svg">
<path fill-rule="evenodd" clip-rule="evenodd" d="M89.9817 4.07526C89.1444 5.32953 87.4145 6.98183 86.4378 8.09679C83.994 6.23305 81.8382 4.529 76.8211 5.17032C68.1761 6.00517 61.2276 15.2448 66.1048 23.7485C71.7448 27.8924 77.3395 26.2361 82.374 23.251L83.6457 28.2302C67.2273 36.9867 52.8233 29.3372 59.3111 12.6168C61.6087 7.56194 74.1718 -6.7798 89.9797 4.07526" fill="#004B9A"/>
<path fill-rule="evenodd" clip-rule="evenodd" d="M55.4564 0.85376C53.0588 4.85687 44.5516 17.408 36.9792 17.1528C24.5754 17.1528 12.5466 17.1846 0.000976562 17.0463L18.7478 0.876641C30.1785 0.876641 44.166 0.994066 55.4564 0.854261" fill="#004B9A"/>
<path fill-rule="evenodd" clip-rule="evenodd" d="M210.556 2.06018L208.575 6.14588C198.84 2.55473 191.159 7.06681 189.113 11.0018C185.086 17.5433 188.05 23.3594 189.605 24.5455C194.509 27.2137 198.146 26.5878 203.716 24.2241L205.486 15.9999H198.184L198.237 11.7212H212.048L208.777 26.4644C194.766 39.2036 170.528 28.5018 184.996 8.06485C188.68 2.31939 200.76 -3.00863 210.557 2.06018" fill="#004B9A"/>
<path fill-rule="evenodd" clip-rule="evenodd" d="M154.22 0.0736361L132.647 31.9458L125.954 31.9602L121.771 0.0393066L127.354 0.184585L131.135 24.8266L148.113 0.0492572L154.22 0.0736361Z" fill="#004B9A"/>
<path fill-rule="evenodd" clip-rule="evenodd" d="M41.4575 19.8335C40.761 22.7605 37.3166 24.5317 34.6668 24.8521L4.51657 24.7779L1.3916 19.8335H41.4575Z" fill="#00AEF1"/>
<path fill-rule="evenodd" clip-rule="evenodd" d="M35.5281 26.9753C34.8589 29.753 29.6976 31.0675 28.2473 31.884L8.43371 31.8879L5.85254 27.0818L35.5281 26.9753Z" fill="#00AEF1"/>
<path fill-rule="evenodd" clip-rule="evenodd" d="M113.568 0L117.75 31.9373L112.472 31.9214L110.46 16.409L101.859 16.5881L91.9411 32L86.127 31.8577L96.3402 16.2299L93.1162 16.3488L94.9491 11.8884L98.9532 11.8457L106.975 0H113.568ZM109.11 6.0788L105.108 11.8277H109.802L109.11 6.0788Z" fill="#004B9A"/>
<path fill-rule="evenodd" clip-rule="evenodd" d="M172.109 0L176.291 31.9373L171.013 31.9219L169.001 16.409L160.399 16.5881L150.484 32L144.671 31.8582L154.883 16.2299L151.658 16.3488L153.491 11.8884L157.494 11.8457L165.516 0H172.109ZM167.489 5.85441L163.647 11.8277H168.343L167.489 5.85441Z" fill="#004B9A"/>
</svg>
