<svg width="198" height="30" viewBox="0 0 198 30" fill="none" xmlns="http://www.w3.org/2000/svg">
<g clip-path="url(#clip0_274_2527)">
<g clip-path="url(#clip1_274_2527)">
<path fill-rule="evenodd" clip-rule="evenodd" d="M84.0203 3.80538C83.2384 4.97655 81.6231 6.51939 80.7112 7.56049C78.4292 5.82021 76.4163 4.22906 71.7316 4.82789C63.6592 5.60743 57.171 14.2349 61.7252 22.1753C66.9916 26.0447 72.2156 24.4982 76.9166 21.7108L78.104 26.3602C62.7733 34.5366 49.3236 27.3938 55.3815 11.7811C57.5269 7.06107 69.2577 -6.33058 84.0185 3.80538" fill="white"/>
<path fill-rule="evenodd" clip-rule="evenodd" d="M51.7827 0.797119C49.5439 4.53504 41.6003 16.2547 34.5296 16.0164C22.9474 16.0164 11.7155 16.0461 0.000976562 15.917L17.5059 0.818485C28.1794 0.818485 41.2402 0.928131 51.7827 0.797587" fill="white"/>
<path fill-rule="evenodd" clip-rule="evenodd" d="M196.607 1.92364L194.758 5.73868C185.667 2.38543 178.495 6.5986 176.585 10.2729C172.824 16.381 175.592 21.8118 177.044 22.9193C181.623 25.4108 185.019 24.8264 190.22 22.6192L191.873 14.9399H185.055L185.104 10.9446H198L194.946 24.7112C181.863 36.6065 159.231 26.6136 172.74 7.53052C176.18 2.16568 187.46 -2.80938 196.607 1.92364" fill="white"/>
<path fill-rule="evenodd" clip-rule="evenodd" d="M144.003 0.0686763L123.86 29.8294L117.609 29.8429L113.704 0.0366211L118.917 0.172275L122.447 23.1819L138.3 0.0459125L144.003 0.0686763Z" fill="white"/>
<path fill-rule="evenodd" clip-rule="evenodd" d="M38.7115 18.5195C38.0611 21.2526 34.8449 22.9065 32.3706 23.2056L4.21776 23.1364L1.2998 18.5195H38.7115Z" fill="white"/>
<path fill-rule="evenodd" clip-rule="evenodd" d="M33.1745 25.1882C32.5496 27.7819 27.7302 29.0093 26.376 29.7717L7.87502 29.7754L5.46484 25.2877L33.1745 25.1882Z" fill="white"/>
<path fill-rule="evenodd" clip-rule="evenodd" d="M106.044 0L109.949 29.8216L105.02 29.8067L103.142 15.3219L95.1105 15.4892L85.8498 29.8801L80.4209 29.7473L89.9576 15.1547L86.9472 15.2657L88.6586 11.1009L92.3975 11.0609L99.8877 0H106.044ZM101.881 5.67611L98.1442 11.0442H102.527L101.881 5.67611Z" fill="white"/>
<path fill-rule="evenodd" clip-rule="evenodd" d="M160.707 0L164.613 29.8216L159.684 29.8072L157.806 15.3219L149.773 15.4892L140.515 29.8801L135.087 29.7477L144.623 15.1547L141.611 15.2657L143.322 11.1009L147.061 11.0609L154.551 0H160.707ZM156.393 5.46658L152.806 11.0442H157.191L156.393 5.46658Z" fill="white"/>
</g>
</g>
<defs>
<clipPath id="clip0_274_2527">
<rect width="198" height="30" fill="white"/>
</clipPath>
<clipPath id="clip1_274_2527">
<rect width="198" height="29.8801" fill="white"/>
</clipPath>
</defs>
</svg>
