<?xml version="1.0" encoding="utf-8"?><svg viewBox="0 0 60 60" xmlns="http://www.w3.org/2000/svg" xmlns:xlink="http://www.w3.org/1999/xlink"><style>:root>svg{display:none}:root>svg:target{display:block}</style><svg viewBox="0 0 16 16" id="icon-arrow-btn" xmlns="http://www.w3.org/2000/svg"><path d="M0 8h14m0 0L7 1m7 7-7 7"/></svg><svg viewBox="0 0 16 9" id="icon-arrow-down" xmlns="http://www.w3.org/2000/svg"><path d="M14 2 8 8 2 2"/></svg><svg viewBox="0 0 10 10" id="icon-arrow-link" xmlns="http://www.w3.org/2000/svg"><path d="m1 9 8-8m0 0H1m8 0v8"/></svg><svg viewBox="0 0 11 20" id="icon-arrow-slider-right" xmlns="http://www.w3.org/2000/svg"><path d="m1 19 9-9-9-9"/></svg><svg viewBox="0 0 16 18" id="icon-calendar" xmlns="http://www.w3.org/2000/svg"><path d="M13.833 15.834H2.167V6.667h11.666m-2.5-5.834V2.5H4.667V.833H3V2.5h-.833A1.66 1.66 0 0 0 .5 4.167v11.666A1.667 1.667 0 0 0 2.167 17.5h11.666a1.666 1.666 0 0 0 1.667-1.666V4.167A1.667 1.667 0 0 0 13.833 2.5H13V.833M12.167 10H8v4.167h4.167V10Z"/></svg><svg viewBox="0 0 18 18" id="icon-close" xmlns="http://www.w3.org/2000/svg"><path d="m1.047 1 16 16m0-16-16 16"/></svg><svg viewBox="0 0 12 12" id="icon-download" xmlns="http://www.w3.org/2000/svg"><path d="M1 11h10M6 1v7m0 0 2.917-3.063M6 8 3.083 4.937"/></svg><svg viewBox="0 0 48 48" id="icon-like" xmlns="http://www.w3.org/2000/svg"><path d="M3.586 19.934h8.06v21.463H3.59a1.7 1.7 0 0 1-1.704-1.7V21.633a1.7 1.7 0 0 1 1.7-1.7Z"/><path d="m11.681 41.496 2.452 1.224c.95.473 1.995.717 3.058.713h22.316a3.875 3.875 0 0 0 3.844-3.401l2.719-17.55a3.91 3.91 0 0 0-3.74-4.492H27.393v-9.9a3.774 3.774 0 0 0-3.908-3.737 3.703 3.703 0 0 0-3.2 1.77l-8.64 13.81v21.463"/></svg><svg viewBox="0 0 24 24" id="icon-mark" xmlns="http://www.w3.org/2000/svg"><path d="M18.883 14.283a7.792 7.792 0 1 0-14.674-3.658 7.755 7.755 0 0 0 1.833 5.021l.01.012.008.009h-.018l4.624 4.909a1.834 1.834 0 0 0 2.669 0l4.624-4.91h-.017l.007-.008.1-.12c.317-.39.597-.81.834-1.255Zm-6.88-.68a2.75 2.75 0 1 1 0-5.5 2.75 2.75 0 0 1 0 5.5Z"/></svg><svg viewBox="0 0 48 48" id="icon-mech" xmlns="http://www.w3.org/2000/svg"><path d="M9.166 10.362a2.864 2.864 0 0 0 4.281-2.473h2.88a2.865 2.865 0 0 0 4.284 2.473l.726 1.256c.396.686 1.564.757 2.252.364.696-.397.64-1.116.238-1.81l-.73-1.263a2.86 2.86 0 0 0-3.888-1.062 2.86 2.86 0 0 0-2.864-2.836h-2.911a2.863 2.863 0 0 0-2.865 2.838 2.86 2.86 0 0 0-3.89 1.062L5.224 11.43a2.864 2.864 0 0 0 1.025 3.9 2.861 2.861 0 0 0-1.025 3.899l1.455 2.52a2.865 2.865 0 0 0 3.89 1.063c.001.11.017.221.046.334.336 1.338 2.159.817 2.539-.51.12-.42.101-.874-.106-1.26a2.768 2.768 0 0 0-.334-.51 2.868 2.868 0 0 0-3.548-.57l-1.44-2.494c1.891-1.106 1.891-3.84 0-4.946l1.44-2.494Z"/><path d="M14.89 18.21a2.88 2.88 0 1 0 0-5.76 2.88 2.88 0 0 0 0 5.76Z"/><path fill-rule="evenodd" clip-rule="evenodd" d="M23.349 29.011a5.885 5.885 0 1 1 11.77 0 5.885 5.885 0 0 1-11.77 0Zm5.886-3.003a3.005 3.005 0 1 0 0 6.01 3.005 3.005 0 0 0 0-6.01Z"/><path fill-rule="evenodd" clip-rule="evenodd" d="M15.703 34.374a3.517 3.517 0 0 1 1.289-4.81.64.64 0 0 0 0-1.106 3.519 3.519 0 0 1-1.287-4.807l2.124-3.679a3.52 3.52 0 0 1 4.806-1.286.637.637 0 0 0 .958-.553 3.519 3.519 0 0 1 3.517-3.52h4.25a3.519 3.519 0 0 1 3.518 3.52c0 .491.532.798.957.553a3.514 3.514 0 0 1 4.805 1.286l2.126 3.683a3.513 3.513 0 0 1-1.287 4.803.637.637 0 0 0 0 1.106 3.52 3.52 0 0 1 1.287 4.806l-2.122 3.679a3.52 3.52 0 0 1-4.807 1.288.64.64 0 0 0-.96.553 3.517 3.517 0 0 1-3.518 3.52h-4.247a3.52 3.52 0 0 1-3.52-3.518.64.64 0 0 0-.96-.553 3.519 3.519 0 0 1-4.805-1.288l-2.124-3.677Zm2.729-2.316a.64.64 0 0 0-.234.876l2.123 3.677a.64.64 0 0 0 .874.234c2.344-1.354 5.278.338 5.278 3.047 0 .351.286.637.639.637h4.247a.64.64 0 0 0 .64-.639c0-2.707 2.931-4.4 5.277-3.047a.64.64 0 0 0 .874-.234l2.124-3.679a.64.64 0 0 0-.235-.872c-2.344-1.353-2.346-4.738 0-6.094a.634.634 0 0 0 .233-.87l-2.126-3.68a.633.633 0 0 0-.871-.234c-2.345 1.355-5.277-.34-5.277-3.047a.64.64 0 0 0-.639-.64h-4.247a.635.635 0 0 0-.637.64c0 2.707-2.932 4.4-5.279 3.045a.639.639 0 0 0-.871.234L18.2 25.091a.64.64 0 0 0 .235.873c2.346 1.354 2.342 4.743 0 6.094"/></svg><svg viewBox="0 0 60 60" id="icon-pdf" xmlns="http://www.w3.org/2000/svg"><path d="M17.5 45v-6.25m0 0V35c0-1.178 0-1.767.385-2.135.385-.365 1.002-.365 2.24-.365h1.75c1.813 0 3.282 1.4 3.282 3.125s-1.47 3.125-3.282 3.125H17.5Zm35-6.25h-3.28c-2.063 0-3.095 0-3.735.61-.64.61-.64 1.593-.64 3.557v2.083m0 0V45m0-6.25h5.468m-10.938 0c0 3.45-2.938 6.25-6.563 6.25-.817 0-1.224 0-1.532-.167-.728-.4-.655-1.213-.655-1.916v-8.334c0-.703-.075-1.515.655-1.916.305-.167.715-.167 1.532-.167 3.626 0 6.563 2.8 6.563 6.25Z"/><path d="M37.5 55H26.817c-8.15 0-12.23 0-15.06-1.995a10.25 10.25 0 0 1-2.137-2.013c-2.12-2.664-2.12-6.5-2.12-14.174v-6.363c0-7.407 0-11.112 1.172-14.07 1.885-4.758 5.87-8.508 10.925-10.283C22.738 5 26.67 5 34.546 5c4.495 0 6.745 0 8.54.63 2.887 1.015 5.165 3.157 6.242 5.875.673 1.69.673 3.807.673 8.04V25"/><path d="M7.5 30a8.333 8.333 0 0 1 8.332-8.332c1.665 0 3.628.29 5.245-.143a4.175 4.175 0 0 0 2.948-2.95c.433-1.617.143-3.58.143-5.245A8.332 8.332 0 0 1 32.5 5"/></svg><svg viewBox="0 0 48 48" id="icon-people" xmlns="http://www.w3.org/2000/svg"><path d="M19 19a6 6 0 1 0 0-12.002A6 6 0 0 0 19 19ZM32.608 7a6.999 6.999 0 0 1 2.486 9.446A6.999 6.999 0 0 1 32.608 19M4 42.543V44h30v-1.457c0-5.44 0-8.16-.872-10.239-.767-1.828-1.99-3.314-3.496-4.245C27.92 27 25.68 27 21.2 27h-4.4c-4.48 0-6.72 0-8.432 1.059-1.505.931-2.729 2.417-3.496 4.245C4 34.383 4 37.103 4 42.543ZM43 42v-1.2c0-4.48 0-6.72-.872-8.432a8 8 0 0 0-3.496-3.496"/></svg></svg>